# xmcd CD database file
#
# Track frame offsets:
#	150
#	14351
#	30154
#	52688
#	66737
#	78054
#	85028
#	116783
#	132494
#	144791
#	158952
#	172331
#	184224
#	202662
#	219653
#	244111
#	264832
#	285177
#	309271
#	324043
#
# Disc length: 4547 seconds
#
# Revision: 0
# Processed by: cddbd v1.5.2PL0 Copyright (c) Steve Scherf et al.
# Submitted via: jetAudio 7
#
DISCID=0211c114
DTITLE=Music from Vietnam - Music from Vietnam
DYEAR=1991
DGENRE=Folklore
TTITLE0=Ste Of Traditional Pieces - Phong Lan
TTITLE1=The Male Phoenix Courting The Female - Kim Sinh
TTITLE2=Airs Of My Fatherland - Phong Lan
TTITLE3=Parting With Friends - Le Huy CanTa Thi Hinh
TTITLE4=Ste For Gtr - Kim Sinh
TTITLE5=Satiric Song - Quy Bon
TTITLE6=Talking About Harvest Time - Nguyen The Dan
TTITLE7=As Long As I Am Charming - Thanh Hieu_Phong Lan
TTITLE8=Gtr Solo - Kim Sinh
TTITLE9=Lu'u Binh's Lament - Quy Bon
TTITLE10=Spring Is Coming - Vu Thi Mai Phu'ong
TTITLE11=I Am The Girl From Bac Ninh - Nguyen Thi Tuc-Ta Thi Hinh
TTITLE12=Flying Cloud - Ngyen Thi Thanh T'am
TTITLE13=Extract From The Drama Of The Co Loa Citadel - Kim Sinh
TTITLE14=Twisting The Thread And Threading The Needle - Thanh Hieu_Phon
TTITLE14=g Lan
TTITLE15=Lotus Fragrence Of The Dong Thap Province - Phong Lan
TTITLE16=Hymn To The Sixth Princess - Quy Bon_Bach Phuong
TTITLE17=Remembering The South - Phong Lan
TTITLE18=Running Water - Kim Sinh
TTITLE19=Sitting And Leaning Against The Boatside - Thanh Hieu
EXTD=YEAR: 1991
EXTT0=
EXTT1=
EXTT2=
EXTT3=
EXTT4=
EXTT5=
EXTT6=
EXTT7=
EXTT8=
EXTT9=
EXTT10=
EXTT11=
EXTT12=
EXTT13=
EXTT14=
EXTT15=
EXTT16=
EXTT17=
EXTT18=
EXTT19=
PLAYORDER=
